<svg width="258" height="43" viewBox="0 0 258 43" fill="none" xmlns="http://www.w3.org/2000/svg">
<path d="M0.561875 33L10.0019 7L10.7019 3L14.2619 2.6L25.2219 33H21.2219L18.2619 24H7.56188L4.24188 33H0.561875ZM12.8219 5L11.9219 11.4L8.54188 21H17.2819L13.7219 11.4L12.8219 5ZM40.8575 14.2C39.6308 14.2 38.5175 14.4333 37.5175 14.9C36.5175 15.3533 35.6575 15.9733 34.9375 16.76C34.2308 17.5467 33.6842 18.4733 33.2975 19.54C32.9108 20.6067 32.7175 21.7467 32.7175 22.96C32.7175 24.1467 32.8842 25.1867 33.2175 26.08C33.5642 26.9733 34.0108 27.72 34.5575 28.32C35.1175 28.92 35.7442 29.3733 36.4375 29.68C37.1308 29.9733 37.8308 30.12 38.5375 30.12C39.1642 30.12 39.7575 30.0133 40.3175 29.8C40.8775 29.5867 41.3975 29.32 41.8775 29C42.3575 28.68 42.7908 28.3333 43.1775 27.96C43.5642 27.5733 43.8908 27.2133 44.1575 26.88V14.2H40.8575ZM44.1575 33V29.76L42.4375 32.02C41.9575 32.34 41.3175 32.64 40.5175 32.92C39.7175 33.2 38.7975 33.34 37.7575 33.34C36.5575 33.34 35.4242 33.1267 34.3575 32.7C33.2908 32.26 32.3575 31.6 31.5575 30.72C30.7575 29.8267 30.1242 28.7 29.6575 27.34C29.1908 25.9667 28.9575 24.3467 28.9575 22.48C28.9575 20.88 29.2642 19.3867 29.8775 18C30.5042 16.6 31.3508 15.38 32.4175 14.34C33.4842 13.3 34.7375 12.4867 36.1775 11.9C37.6308 11.3 39.1842 11 40.8375 11H44.1575V0.599998L47.7575 1V29.4L48.1575 33H44.1575ZM66.1731 25.14C66.1731 25.8333 66.2131 26.4733 66.2931 27.06C66.3865 27.6467 66.5331 28.1533 66.7331 28.58C66.9331 29.0067 67.1998 29.34 67.5331 29.58C67.8665 29.82 68.2798 29.94 68.7731 29.94C69.4265 29.94 70.0598 29.8867 70.6731 29.78C71.2998 29.6733 71.8598 29.5533 72.3531 29.42C72.8465 29.2733 73.2531 29.14 73.5731 29.02C73.9065 28.9 74.1131 28.8267 74.1931 28.8L74.9731 31.88C74.8931 31.92 74.6798 32.02 74.3331 32.18C73.9865 32.34 73.5331 32.5067 72.9731 32.68C72.4131 32.84 71.7598 32.9867 71.0131 33.12C70.2665 33.2667 69.4531 33.34 68.5731 33.34C67.2665 33.34 66.2065 33.1267 65.3931 32.7C64.5931 32.2733 63.9665 31.6867 63.5131 30.94C63.0598 30.18 62.7531 29.2867 62.5931 28.26C62.4465 27.2333 62.3731 26.1267 62.3731 24.94V14.6L63.1731 13.4L60.3731 14.2H56.3531L55.9531 11H66.1731V25.14ZM62.2531 3H66.2931V7H62.2531V3ZM89.3888 25.48C89.3888 26.36 89.4354 27.1 89.5288 27.7C89.6354 28.2867 89.7821 28.7667 89.9688 29.14C90.1688 29.5 90.4088 29.76 90.6888 29.92C90.9821 30.0667 91.3154 30.14 91.6888 30.14C92.3154 30.14 92.9354 30.0667 93.5488 29.92C94.1621 29.7733 94.7354 29.6067 95.2688 29.42C95.8021 29.22 96.2754 29.0267 96.6888 28.84C97.1021 28.64 97.4221 28.4933 97.6488 28.4L99.0288 30.82C98.9088 30.9267 98.6154 31.12 98.1488 31.4C97.6954 31.6667 97.1154 31.9467 96.4088 32.24C95.7154 32.5333 94.9288 32.7867 94.0488 33C93.1688 33.2267 92.2488 33.34 91.2888 33.34C90.0888 33.34 89.1221 33.12 88.3888 32.68C87.6688 32.24 87.1154 31.64 86.7288 30.88C86.3421 30.12 86.0888 29.24 85.9688 28.24C85.8488 27.2267 85.7888 26.1467 85.7888 25V14.2H79.9688V11H85.7888V6.82L89.2888 4.6V11H98.9688L98.5688 14.2H89.3888V25.48ZM118.224 25.72L123.604 11L127.204 10.6L119.124 33.34C118.724 34.46 118.291 35.5733 117.824 36.68C117.371 37.7867 116.851 38.78 116.264 39.66C115.691 40.54 115.038 41.2467 114.304 41.78C113.584 42.3267 112.758 42.6 111.824 42.6C111.078 42.6 110.391 42.4533 109.764 42.16C109.138 41.8667 108.544 41.48 107.984 41L109.444 38.66C109.524 38.74 109.624 38.8333 109.744 38.94C109.878 39.0467 110.018 39.1467 110.164 39.24C110.324 39.3467 110.491 39.4333 110.664 39.5C110.851 39.5667 111.038 39.6 111.224 39.6C111.704 39.6 112.138 39.4267 112.524 39.08C112.924 38.7467 113.291 38.3067 113.624 37.76C113.971 37.2133 114.284 36.6067 114.564 35.94C114.858 35.2733 115.138 34.6067 115.404 33.94L107.264 11L111.064 10.6L116.344 25.72L117.384 30.36L118.224 25.72ZM152.2 33H148.2V29.76L146.32 32C146.093 32.1733 145.8 32.34 145.44 32.5C145.093 32.66 144.72 32.8067 144.32 32.94C143.92 33.06 143.513 33.1533 143.1 33.22C142.687 33.3 142.293 33.34 141.92 33.34C140.92 33.34 139.913 33.1867 138.9 32.88C137.887 32.56 136.973 32.1 136.16 31.5C135.347 30.8867 134.68 30.1333 134.16 29.24C133.653 28.3333 133.4 27.2933 133.4 26.12C133.4 24.88 133.66 23.8133 134.18 22.92C134.713 22.0133 135.407 21.2667 136.26 20.68C137.113 20.0933 138.087 19.66 139.18 19.38C140.273 19.1 141.38 18.96 142.5 18.96C143.767 18.96 144.867 19.0333 145.8 19.18C146.733 19.3133 147.533 19.5067 148.2 19.76V18.9C148.2 18.1133 148.1 17.4067 147.9 16.78C147.713 16.1533 147.413 15.6267 147 15.2C146.587 14.76 146.053 14.4267 145.4 14.2C144.76 13.9733 143.993 13.86 143.1 13.86C142.26 13.86 141.533 13.9133 140.92 14.02C140.32 14.1133 139.76 14.22 139.24 14.34C138.933 14.4067 138.64 14.48 138.36 14.56C138.08 14.64 137.807 14.72 137.54 14.8L136.1 12.12C136.66 11.8667 137.327 11.6267 138.1 11.4C138.74 11.2133 139.467 11.0467 140.28 10.9C141.107 10.74 142.113 10.66 143.3 10.66C144.833 10.66 146.14 10.8667 147.22 11.28C148.3 11.6933 149.18 12.2733 149.86 13.02C150.54 13.7667 151.033 14.6667 151.34 15.72C151.647 16.76 151.8 17.92 151.8 19.2V29.4L152.2 33ZM148.2 22.5L147 22.34C146.813 22.3267 146.567 22.3067 146.26 22.28C145.953 22.2533 145.62 22.2333 145.26 22.22L144.2 22.18C143.853 22.1667 143.553 22.16 143.3 22.16C142.553 22.16 141.82 22.2267 141.1 22.36C140.38 22.4933 139.733 22.7133 139.16 23.02C138.6 23.3267 138.14 23.7333 137.78 24.24C137.433 24.7333 137.26 25.3533 137.26 26.1C137.26 26.7 137.393 27.2467 137.66 27.74C137.927 28.2333 138.28 28.66 138.72 29.02C139.173 29.38 139.687 29.66 140.26 29.86C140.847 30.0467 141.453 30.14 142.08 30.14C143.32 30.14 144.433 29.9067 145.42 29.44C146.407 28.96 147.333 28.32 148.2 27.52V22.5ZM189.871 20.72V33H186.211V7.2L185.511 3.2C186.405 3.09333 187.385 2.99333 188.451 2.9C189.531 2.80666 190.651 2.76 191.811 2.76C193.491 2.76 195.045 2.94 196.471 3.3C197.898 3.64667 199.131 4.16666 200.171 4.86C201.211 5.55333 202.025 6.42 202.611 7.46C203.198 8.48667 203.491 9.67333 203.491 11.02C203.491 12.42 203.251 13.6533 202.771 14.72C202.291 15.7867 201.638 16.7 200.811 17.46C199.985 18.2067 199.005 18.82 197.871 19.3C196.738 19.7667 195.525 20.1133 194.231 20.34L197.071 21.14L205.131 33H200.671L192.611 21.1C192.465 20.9133 192.298 20.8067 192.111 20.78C191.925 20.74 191.778 20.72 191.671 20.72H189.871ZM189.871 10.06V17.7H192.231C193.445 17.7 194.518 17.5333 195.451 17.2C196.385 16.8533 197.171 16.3933 197.811 15.82C198.451 15.2333 198.938 14.56 199.271 13.8C199.605 13.0267 199.771 12.2067 199.771 11.34C199.771 10.58 199.665 9.90667 199.451 9.32C199.238 8.73333 198.945 8.22667 198.571 7.8C198.198 7.37333 197.765 7.01333 197.271 6.72C196.778 6.41333 196.251 6.17333 195.691 6C195.145 5.82667 194.578 5.7 193.991 5.62C193.418 5.54 192.858 5.5 192.311 5.5C191.751 5.5 191.245 5.52 190.791 5.56C190.351 5.58666 189.911 5.64 189.471 5.72L189.871 10.06ZM230.247 33H226.247V29.76L224.367 32C224.14 32.1733 223.847 32.34 223.487 32.5C223.14 32.66 222.767 32.8067 222.367 32.94C221.967 33.06 221.56 33.1533 221.147 33.22C220.734 33.3 220.34 33.34 219.967 33.34C218.967 33.34 217.96 33.1867 216.947 32.88C215.934 32.56 215.02 32.1 214.207 31.5C213.394 30.8867 212.727 30.1333 212.207 29.24C211.7 28.3333 211.447 27.2933 211.447 26.12C211.447 24.88 211.707 23.8133 212.227 22.92C212.76 22.0133 213.454 21.2667 214.307 20.68C215.16 20.0933 216.134 19.66 217.227 19.38C218.32 19.1 219.427 18.96 220.547 18.96C221.814 18.96 222.914 19.0333 223.847 19.18C224.78 19.3133 225.58 19.5067 226.247 19.76V18.9C226.247 18.1133 226.147 17.4067 225.947 16.78C225.76 16.1533 225.46 15.6267 225.047 15.2C224.634 14.76 224.1 14.4267 223.447 14.2C222.807 13.9733 222.04 13.86 221.147 13.86C220.307 13.86 219.58 13.9133 218.967 14.02C218.367 14.1133 217.807 14.22 217.287 14.34C216.98 14.4067 216.687 14.48 216.407 14.56C216.127 14.64 215.854 14.72 215.587 14.8L214.147 12.12C214.707 11.8667 215.374 11.6267 216.147 11.4C216.787 11.2133 217.514 11.0467 218.327 10.9C219.154 10.74 220.16 10.66 221.347 10.66C222.88 10.66 224.187 10.8667 225.267 11.28C226.347 11.6933 227.227 12.2733 227.907 13.02C228.587 13.7667 229.08 14.6667 229.387 15.72C229.694 16.76 229.847 17.92 229.847 19.2V29.4L230.247 33ZM226.247 22.5L225.047 22.34C224.86 22.3267 224.614 22.3067 224.307 22.28C224 22.2533 223.667 22.2333 223.307 22.22L222.247 22.18C221.9 22.1667 221.6 22.16 221.347 22.16C220.6 22.16 219.867 22.2267 219.147 22.36C218.427 22.4933 217.78 22.7133 217.207 23.02C216.647 23.3267 216.187 23.7333 215.827 24.24C215.48 24.7333 215.307 25.3533 215.307 26.1C215.307 26.7 215.44 27.2467 215.707 27.74C215.974 28.2333 216.327 28.66 216.767 29.02C217.22 29.38 217.734 29.66 218.307 29.86C218.894 30.0467 219.5 30.14 220.127 30.14C221.367 30.14 222.48 29.9067 223.467 29.44C224.454 28.96 225.38 28.32 226.247 27.52V22.5ZM248.283 25.14C248.283 25.8333 248.323 26.4733 248.403 27.06C248.496 27.6467 248.643 28.1533 248.843 28.58C249.043 29.0067 249.309 29.34 249.643 29.58C249.976 29.82 250.389 29.94 250.883 29.94C251.536 29.94 252.169 29.8867 252.783 29.78C253.409 29.6733 253.969 29.5533 254.463 29.42C254.956 29.2733 255.363 29.14 255.683 29.02C256.016 28.9 256.223 28.8267 256.303 28.8L257.083 31.88C257.003 31.92 256.789 32.02 256.443 32.18C256.096 32.34 255.643 32.5067 255.082 32.68C254.523 32.84 253.869 32.9867 253.123 33.12C252.376 33.2667 251.563 33.34 250.683 33.34C249.376 33.34 248.316 33.1267 247.503 32.7C246.703 32.2733 246.076 31.6867 245.623 30.94C245.169 30.18 244.863 29.2867 244.703 28.26C244.556 27.2333 244.483 26.1267 244.483 24.94V14.6L245.283 13.4L242.483 14.2H238.463L238.063 11H248.283V25.14ZM244.363 3H248.403V7H244.363V3Z" fill="black"/>
</svg>
