<svg width="136" height="30" viewBox="0 0 136 30" fill="none" xmlns="http://www.w3.org/2000/svg">
<path d="M13.303 29.44C10.8496 29.44 8.60964 28.84 6.58297 27.64C4.58297 26.44 2.98297 24.7467 1.78297 22.56C0.609636 20.3733 0.0229689 17.7867 0.0229689 14.8C0.0229689 12.64 0.382969 10.6533 1.10297 8.84C1.82297 7.02667 2.80964 5.46667 4.06297 4.16C5.3163 2.85333 6.7563 1.84 8.38297 1.12C10.0096 0.399999 11.7296 0.0399985 13.543 0.0399985C14.7163 0.0399985 15.7696 0.186665 16.703 0.479998C17.6363 0.773332 18.3963 1.05333 18.983 1.32C19.6763 1.61333 20.1563 1.81333 20.423 1.92C20.7163 2.02667 21.0363 2.08 21.383 2.08C21.7563 2.08 22.0096 1.92 22.143 1.6C22.303 1.25333 22.383 0.919999 22.383 0.599998H23.383L23.303 5.2L23.383 9.88H22.383C22.3296 8.06667 21.8496 6.52 20.943 5.24C20.063 3.93333 18.943 2.94667 17.583 2.28C16.2496 1.58667 14.863 1.24 13.423 1.24C10.303 1.24 7.96964 2.41333 6.42297 4.76C4.8763 7.10667 4.10297 10.4533 4.10297 14.8C4.10297 19.3867 4.92964 22.7733 6.58297 24.96C8.2363 27.1467 10.5563 28.24 13.543 28.24C15.0363 28.24 16.3563 28 17.503 27.52C18.6496 27.04 19.5563 26.4133 20.223 25.64C20.8896 24.84 21.223 24.0133 21.223 23.16V22.04C21.223 20.8667 20.943 20.0267 20.383 19.52C19.8496 19.0133 18.8496 18.6933 17.383 18.56L15.663 18.4V17.44L22.303 17.6L28.463 17.44V18.4L26.663 18.56C25.943 18.6133 25.3563 18.8933 24.903 19.4C24.4496 19.9067 24.223 20.7867 24.223 22.04V22.76C24.223 23.3733 24.3163 23.9467 24.503 24.48C24.7163 25.0133 24.9163 25.4667 25.103 25.84L25.663 26.84L24.743 27.44C24.3963 26.88 24.0496 26.5067 23.703 26.32C23.383 26.1067 23.103 26 22.863 26C22.4363 26 22.0496 26.1067 21.703 26.32C21.3563 26.5333 20.983 26.7867 20.583 27.08C20.1296 27.4 19.583 27.7467 18.943 28.12C18.3296 28.4933 17.5696 28.8 16.663 29.04C15.7563 29.3067 14.6363 29.44 13.303 29.44ZM35.3892 29.44C34.1092 29.44 33.0426 29.12 32.1892 28.48C31.3626 27.8133 30.9492 26.8933 30.9492 25.72C30.9492 24.5467 31.4692 23.5067 32.5092 22.6C33.5492 21.6667 34.7626 20.8267 36.1492 20.08C37.1892 19.4933 38.2292 18.9867 39.2692 18.56C40.3092 18.1333 41.2026 17.7733 41.9492 17.48V16.2C41.9492 14.7333 41.6692 13.64 41.1092 12.92C40.5759 12.2 39.5492 11.84 38.0292 11.84C37.3092 11.84 36.6026 11.9333 35.9092 12.12C35.2159 12.3067 34.8692 12.6533 34.8692 13.16C34.8692 13.2667 34.8826 13.3867 34.9092 13.52C34.9626 13.6533 35.0026 13.7867 35.0292 13.92C35.1626 14.2667 35.2292 14.6267 35.2292 15C35.2292 15.5067 35.0426 15.9067 34.6692 16.2C34.3226 16.4667 33.8959 16.6 33.3892 16.6C32.9092 16.6 32.5092 16.4267 32.1892 16.08C31.8692 15.7067 31.7092 15.2667 31.7092 14.76C31.7092 13.8 32.0692 13.04 32.7892 12.48C33.5359 11.8933 34.4426 11.48 35.5092 11.24C36.5759 10.9733 37.6026 10.84 38.5892 10.84C40.7226 10.84 42.2826 11.3333 43.2692 12.32C44.2559 13.3067 44.7492 14.92 44.7492 17.16V24.36C44.7492 25.5333 44.8292 26.44 44.9892 27.08C45.1759 27.72 45.5759 28.04 46.1892 28.04C46.5892 28.04 46.9359 27.8933 47.2292 27.6C47.5226 27.3067 47.7226 26.9867 47.8292 26.64L48.5492 26.92C48.3359 27.6933 47.9492 28.3067 47.3892 28.76C46.8559 29.2133 46.1092 29.44 45.1492 29.44C43.9759 29.44 43.1626 29.1067 42.7092 28.44C42.2826 27.7467 42.0426 26.84 41.9892 25.72C41.2426 26.92 40.2959 27.84 39.1492 28.48C38.0026 29.12 36.7492 29.44 35.3892 29.44ZM34.0692 25.52C34.0692 26.2667 34.2826 26.8667 34.7092 27.32C35.1626 27.7467 35.8159 27.96 36.6692 27.96C37.4426 27.96 38.1759 27.7733 38.8692 27.4C39.5892 27.0267 40.2159 26.56 40.7492 26C41.2826 25.4133 41.6826 24.7867 41.9492 24.12V18.28C41.0692 18.6533 40.1626 19.0933 39.2292 19.6C38.3226 20.08 37.4692 20.6267 36.6692 21.24C35.8959 21.8533 35.2692 22.52 34.7892 23.24C34.3092 23.9333 34.0692 24.6933 34.0692 25.52ZM49.6786 29.12V28.2L50.3186 28.12C51.0919 28.0133 51.6786 27.8933 52.0786 27.76C52.5053 27.6 52.7986 27.2667 52.9586 26.76C53.1186 26.2267 53.1986 25.36 53.1986 24.16V15.72C53.1986 14.76 53.0519 14.0533 52.7586 13.6C52.4919 13.12 52.0919 12.8133 51.5586 12.68C51.0253 12.5467 50.3986 12.48 49.6786 12.48V11.56C50.7719 11.56 51.8253 11.5333 52.8386 11.48C53.8519 11.4 54.9053 11.2667 55.9986 11.08V14.2C56.5853 13.2933 57.3986 12.5067 58.4386 11.84C59.5053 11.1733 60.7319 10.84 62.1186 10.84C63.5319 10.84 64.7053 11.1467 65.6386 11.76C66.5986 12.3467 67.2386 13.28 67.5586 14.56C68.1186 13.6 68.9453 12.7467 70.0386 12C71.1319 11.2267 72.4253 10.84 73.9186 10.84C75.6519 10.84 77.0253 11.2933 78.0386 12.2C79.0786 13.1067 79.5986 14.5467 79.5986 16.52V24.16C79.5986 25.3333 79.6653 26.1867 79.7986 26.72C79.9586 27.2267 80.2386 27.56 80.6386 27.72C81.0653 27.88 81.6653 28.0133 82.4386 28.12L83.0786 28.2V29.12L78.1986 29L73.6786 29.12V28.2L74.3186 28.12C74.9853 28.04 75.4919 27.92 75.8386 27.76C76.2119 27.6 76.4653 27.2667 76.5986 26.76C76.7319 26.2267 76.7986 25.36 76.7986 24.16V15.84C76.7986 14.6667 76.4786 13.7467 75.8386 13.08C75.1986 12.3867 74.2919 12.04 73.1186 12.04C72.1586 12.04 71.3186 12.2533 70.5986 12.68C69.8786 13.1067 69.2786 13.64 68.7986 14.28C68.3453 14.92 68.0119 15.5467 67.7986 16.16C67.7986 16.2667 67.7986 16.3867 67.7986 16.52V24.16C67.7986 25.36 67.8653 26.2267 67.9986 26.76C68.1319 27.2667 68.3719 27.6 68.7186 27.76C69.0919 27.8933 69.6119 28.0133 70.2786 28.12L70.9186 28.2V29.12L66.3986 29L61.8786 29.12V28.2L62.5186 28.12C63.1853 28.0133 63.6919 27.8933 64.0386 27.76C64.4119 27.6 64.6653 27.2667 64.7986 26.76C64.9319 26.2267 64.9986 25.36 64.9986 24.16V15.84C64.9986 14.6667 64.6786 13.7467 64.0386 13.08C63.3986 12.3867 62.4919 12.04 61.3186 12.04C60.3853 12.04 59.5586 12.2533 58.8386 12.68C58.1186 13.1067 57.5186 13.64 57.0386 14.28C56.5586 14.92 56.2119 15.5467 55.9986 16.16V24.16C55.9986 25.36 56.0653 26.2267 56.1986 26.76C56.3319 27.2667 56.5719 27.6 56.9186 27.76C57.2919 27.8933 57.8119 28.0133 58.4786 28.12L59.1186 28.2V29.12L54.5986 29L49.6786 29.12ZM94.0795 29.44C92.3195 29.44 90.7862 29.0667 89.4795 28.32C88.1729 27.5467 87.1462 26.4933 86.3995 25.16C85.6795 23.8 85.3195 22.2533 85.3195 20.52C85.3195 18.6533 85.7195 17 86.5195 15.56C87.3195 14.0933 88.3862 12.9467 89.7195 12.12C91.0795 11.2667 92.5729 10.84 94.1995 10.84C96.2529 10.84 97.8529 11.4933 98.9995 12.8C100.173 14.1067 100.76 15.8267 100.76 17.96C100.76 18.28 100.746 18.5467 100.72 18.76C100.693 18.9733 100.666 19.12 100.64 19.2H88.5595C88.5329 19.5733 88.5195 19.9467 88.5195 20.32C88.5195 21.7333 88.7462 23.0533 89.1995 24.28C89.6529 25.48 90.3329 26.44 91.2395 27.16C92.1729 27.88 93.3062 28.24 94.6395 28.24C95.8929 28.24 96.9995 27.8933 97.9595 27.2C98.9462 26.48 99.7062 25.4267 100.24 24.04L101.2 24.4C100.08 27.76 97.7062 29.44 94.0795 29.44ZM94.1995 11.84C92.5462 11.84 91.2529 12.4267 90.3195 13.6C89.4129 14.7733 88.8529 16.3333 88.6395 18.28H93.7195C94.9195 18.28 95.8262 18.1467 96.4395 17.88C97.0795 17.5867 97.5062 17.24 97.7195 16.84C97.9595 16.4133 98.0795 16 98.0795 15.6C98.0795 14.4267 97.6795 13.5067 96.8795 12.84C96.0795 12.1733 95.1862 11.84 94.1995 11.84ZM119.729 29.264C118.705 29.264 117.769 29.016 116.921 28.52C116.089 28.024 115.425 27.36 114.929 26.528C114.449 25.68 114.209 24.744 114.209 23.72C114.209 22.664 114.449 21.712 114.929 20.864C115.425 20.016 116.089 19.344 116.921 18.848C117.769 18.352 118.705 18.104 119.729 18.104C120.769 18.104 121.705 18.352 122.537 18.848C123.369 19.344 124.025 20.016 124.505 20.864C125.001 21.712 125.249 22.664 125.249 23.72C125.249 24.744 125.001 25.68 124.505 26.528C124.025 27.36 123.369 28.024 122.537 28.52C121.705 29.016 120.769 29.264 119.729 29.264ZM119.729 28.664C120.593 28.664 121.289 28.448 121.817 28.016C122.345 27.568 122.729 26.976 122.969 26.24C123.209 25.488 123.329 24.648 123.329 23.72C123.329 22.76 123.209 21.904 122.969 21.152C122.729 20.4 122.345 19.808 121.817 19.376C121.289 18.928 120.593 18.704 119.729 18.704C118.865 18.704 118.169 18.928 117.641 19.376C117.113 19.808 116.729 20.4 116.489 21.152C116.249 21.904 116.129 22.76 116.129 23.72C116.129 24.648 116.249 25.488 116.489 26.24C116.729 26.976 117.113 27.568 117.641 28.016C118.169 28.448 118.865 28.664 119.729 28.664ZM126.924 29.072V28.52L127.308 28.472C127.772 28.408 128.124 28.336 128.364 28.256C128.62 28.16 128.796 27.96 128.892 27.656C128.988 27.336 129.036 26.816 129.036 26.096V19.136H126.972V18.536H129.036V15.8C129.036 14.328 129.356 13.264 129.996 12.608C130.652 11.952 131.612 11.624 132.876 11.624C133.692 11.624 134.372 11.792 134.916 12.128C135.46 12.448 135.732 12.928 135.732 13.568C135.732 13.984 135.612 14.304 135.372 14.528C135.148 14.736 134.876 14.84 134.556 14.84C134.252 14.84 133.996 14.736 133.788 14.528C133.596 14.32 133.5 14.088 133.5 13.832C133.5 13.672 133.516 13.536 133.548 13.424C133.58 13.312 133.612 13.208 133.644 13.112C133.692 12.984 133.716 12.88 133.716 12.8C133.716 12.592 133.628 12.448 133.452 12.368C133.276 12.272 133.084 12.224 132.876 12.224C132.268 12.224 131.804 12.384 131.484 12.704C131.18 13.024 130.972 13.456 130.86 14C130.764 14.544 130.716 15.144 130.716 15.8V18.536H133.188V19.136H130.716V26.096C130.716 26.816 130.764 27.336 130.86 27.656C130.956 27.96 131.124 28.16 131.364 28.256C131.62 28.336 131.98 28.408 132.444 28.472L132.828 28.52V29.072L129.876 29L126.924 29.072Z" fill="black"/>
</svg>
