<svg width="106" height="40" viewBox="0 0 106 40" fill="none" xmlns="http://www.w3.org/2000/svg">
<path d="M9.9025 34.56C9.9025 35.7973 10.0305 36.6933 10.2865 37.248C10.5425 37.8027 11.0118 38.1867 11.6945 38.4C12.3772 38.5707 13.4865 38.656 15.0225 38.656H21.9985C24.4305 38.656 26.3718 37.9093 27.8225 36.416C29.2732 34.9227 30.2332 32.8533 30.7025 30.208C30.7025 30.08 30.8092 30.0373 31.0225 30.08C31.2785 30.08 31.4065 30.144 31.4065 30.272C31.0225 33.8133 30.8305 36.736 30.8305 39.04C30.8305 39.3813 30.7665 39.6373 30.6385 39.808C30.5105 39.936 30.2545 40 29.8705 40H0.3025C0.217167 40 0.1745 39.872 0.1745 39.616C0.1745 39.36 0.217167 39.232 0.3025 39.232C1.92383 39.232 3.09717 39.1253 3.8225 38.912C4.5905 38.6987 5.1025 38.2933 5.3585 37.696C5.6145 37.056 5.7425 36.096 5.7425 34.816V5.184C5.7425 3.904 5.6145 2.96533 5.3585 2.368C5.1025 1.77066 4.5905 1.36533 3.8225 1.152C3.09717 0.895997 1.92383 0.767998 0.3025 0.767998C0.217167 0.767998 0.1745 0.639998 0.1745 0.383999C0.1745 0.128 0.217167 0 0.3025 0L3.4385 0.0639992C5.2305 0.149331 6.68117 0.191998 7.7905 0.191998C8.98517 0.191998 10.4785 0.149331 12.2705 0.0639992L15.3425 0C15.4705 0 15.5345 0.128 15.5345 0.383999C15.5345 0.639998 15.4705 0.767998 15.3425 0.767998C13.7638 0.767998 12.5905 0.895997 11.8225 1.152C11.0972 1.36533 10.5852 1.792 10.2865 2.432C10.0305 3.02933 9.9025 3.968 9.9025 5.248V34.56ZM43.5795 34.816C43.5795 36.1387 43.6862 37.0987 43.8995 37.696C44.1555 38.2933 44.6035 38.6987 45.2435 38.912C45.8835 39.1253 46.9288 39.232 48.3795 39.232C48.4648 39.232 48.5075 39.36 48.5075 39.616C48.5075 39.872 48.4648 40 48.3795 40C47.1848 40 46.2462 39.9787 45.5635 39.936L41.5315 39.872L37.7555 39.936C37.0302 39.9787 36.0488 40 34.8115 40C34.7262 40 34.6835 39.872 34.6835 39.616C34.6835 39.36 34.7262 39.232 34.8115 39.232C36.2622 39.232 37.3075 39.1253 37.9475 38.912C38.5875 38.6987 39.0142 38.2933 39.2275 37.696C39.4835 37.0987 39.6115 36.1387 39.6115 34.816V15.232C39.6115 13.952 39.4835 13.0133 39.2275 12.416C39.0142 11.8187 38.5662 11.4133 37.8835 11.2C37.2435 10.944 36.2195 10.816 34.8115 10.816C34.7262 10.816 34.6835 10.688 34.6835 10.432C34.6835 10.176 34.7262 10.048 34.8115 10.048L37.7555 10.112C39.2915 10.1973 40.5502 10.24 41.5315 10.24C42.6408 10.24 44.0062 10.1973 45.6275 10.112L48.3795 10.048C48.4648 10.048 48.5075 10.176 48.5075 10.432C48.5075 10.688 48.4648 10.816 48.3795 10.816C47.0142 10.816 45.9902 10.944 45.3075 11.2C44.6248 11.456 44.1555 11.904 43.8995 12.544C43.6862 13.1413 43.5795 14.08 43.5795 15.36V34.816ZM76.1535 14.528C76.1962 15.3387 76.2175 16.3627 76.2175 17.6C76.2175 17.728 76.0895 17.792 75.8335 17.792C75.5775 17.792 75.4495 17.728 75.4495 17.6C75.2362 15.552 74.5322 13.9307 73.3375 12.736C72.1428 11.4987 70.5855 10.88 68.6655 10.88H66.8735C65.3802 10.88 64.2922 11.008 63.6095 11.264C62.9268 11.4773 62.4575 11.8827 62.2015 12.48C61.9455 13.0773 61.8175 14.016 61.8175 15.296V24.768C65.9135 24.7253 68.7082 24.6187 70.2015 24.448C71.7375 24.2773 72.6122 24.192 72.8255 24.192C73.0388 24.192 73.1455 24.64 73.1455 25.536C73.1455 26.5173 73.0388 27.008 72.8255 27.008C72.6548 27.008 71.8015 26.9013 70.2655 26.688C68.7722 26.432 65.9562 26.2613 61.8175 26.176V34.56C61.8175 35.9253 61.9668 36.928 62.2655 37.568C62.5642 38.1653 63.1402 38.592 63.9935 38.848C64.8895 39.104 66.2762 39.232 68.1535 39.232C68.2815 39.232 68.3455 39.36 68.3455 39.616C68.3455 39.872 68.2815 40 68.1535 40C66.6175 40 65.4442 39.9787 64.6335 39.936L59.8335 39.872L56.3775 39.936C55.6522 39.9787 54.5855 40 53.1775 40C53.0922 40 53.0495 39.872 53.0495 39.616C53.0495 39.36 53.0922 39.232 53.1775 39.232C54.5855 39.232 55.6095 39.1253 56.2495 38.912C56.8895 38.6987 57.3162 38.2933 57.5295 37.696C57.7855 37.056 57.9135 36.096 57.9135 34.816V15.232C57.9135 13.952 57.7855 13.0133 57.5295 12.416C57.3162 11.8187 56.8895 11.4133 56.2495 11.2C55.6095 10.944 54.5855 10.816 53.1775 10.816C53.0922 10.816 53.0495 10.688 53.0495 10.432C53.0495 10.176 53.0922 10.048 53.1775 10.048H75.4495C75.8762 10.048 76.0895 10.2187 76.0895 10.56L76.1535 14.528ZM104.618 31.488C104.618 31.36 104.725 31.296 104.938 31.296C105.194 31.296 105.322 31.36 105.322 31.488C105.023 34.56 104.874 37.0773 104.874 39.04C104.874 39.3813 104.81 39.6373 104.682 39.808C104.554 39.936 104.298 40 103.914 40H80.49C80.4047 40 80.362 39.872 80.362 39.616C80.362 39.36 80.4047 39.232 80.49 39.232C81.898 39.232 82.922 39.1253 83.562 38.912C84.202 38.6987 84.6287 38.2933 84.842 37.696C85.098 37.056 85.226 36.096 85.226 34.816V15.232C85.226 13.952 85.098 13.0133 84.842 12.416C84.6287 11.8187 84.202 11.4133 83.562 11.2C82.922 10.944 81.898 10.816 80.49 10.816C80.4047 10.816 80.362 10.688 80.362 10.432C80.362 10.176 80.4047 10.048 80.49 10.048H102.762C103.189 10.048 103.402 10.2187 103.402 10.56L103.466 14.528C103.509 15.3387 103.53 16.3627 103.53 17.6C103.53 17.728 103.402 17.792 103.146 17.792C102.89 17.792 102.762 17.728 102.762 17.6C102.591 15.6373 101.866 14.0373 100.586 12.8C99.3487 11.52 97.8127 10.88 95.978 10.88H94.186C92.6927 10.88 91.6047 11.008 90.922 11.264C90.2393 11.4773 89.77 11.8827 89.514 12.48C89.258 13.0773 89.13 14.016 89.13 15.296V24.064C93.2687 24.0213 96.0847 23.9147 97.578 23.744C99.114 23.5307 99.9887 23.424 100.202 23.424C100.415 23.424 100.522 23.872 100.522 24.768C100.522 25.7493 100.415 26.24 100.202 26.24C100.031 26.24 99.178 26.1333 97.642 25.92C96.106 25.664 93.2687 25.4933 89.13 25.408V34.56C89.13 35.7973 89.258 36.736 89.514 37.376C89.77 37.9733 90.2393 38.4 90.922 38.656C91.6473 38.8693 92.7353 38.976 94.186 38.976H97.258C98.9647 38.976 100.501 38.2933 101.866 36.928C103.231 35.52 104.149 33.7067 104.618 31.488Z" fill="black"/>
</svg>
